# xmcd CD database file
#
# Track frame offsets:
#	150
#	23730
#	42468
#	77055
#	90842
#	143862
#	183239
#	209551
#	224567
#	251573
#	271444
#
# Disc length: 4178 seconds
#
# Revision: 0
# Processed by: cddbd v1.5.2PL0 Copyright (c) Steve Scherf et al.
# Submitted via: CDex 1.51
#
DISCID=9c10500b
DTITLE=Graham Collier - New Conditions, the mature Collier
DYEAR=2012
DGENRE=Jazz
TTITLE0=New Conditions (1976) Track 4
TTITLE1=Forest Path to the Spring (1978)
TTITLE2=Symphony of Scorpions (1976) Part 2
TTITLE3=Day of the Dead (1978) Melange of three short extracts
TTITLE4=Hoarded Dreams (1983) Part Two: Five Trumpets and a Baritone
TTITLE5=One by One the Cow Goes By (1993) Part Two
TTITLE6=The Hackney Five (1994) Extract
TTITLE7=The Third Colour (1997) Groove 2
TTITLE8=Oxford Palms (2001) Open Blues and Ballad Two
TTITLE9=Vonetta Factor (2004) Opening
TTITLE10=Alternate Aberdeen Angus (2004)
EXTD=YEAR: 2012
EXTT0=
EXTT1=
EXTT2=
EXTT3=
EXTT4=
EXTT5=
EXTT6=
EXTT7=
EXTT8=
EXTT9=
EXTT10=
PLAYORDER=
